<svg width="53" height="70" viewBox="0 0 53 70" fill="none" xmlns="http://www.w3.org/2000/svg">
<path fill-rule="evenodd" clip-rule="evenodd" d="M51.9782 28.1912C53.0479 20.924 47.5695 16.9958 40.0489 14.3769L42.4801 4.55635L36.4183 3.01779L34.0194 12.642L29.2866 11.4962L31.653 1.83932L25.7208 0.333496L23.2896 10.1541L11.2955 7.20791L9.83676 13.624C9.83676 13.624 14.2454 14.6388 14.1482 14.7043C15.8232 14.9565 17.0237 16.4683 16.9035 18.1742L10.4203 45.2136C10.2487 45.7695 9.86527 46.2337 9.35449 46.5039C8.84371 46.7741 8.2475 46.828 7.69727 46.6539L3.06172 45.5409L0.111816 52.4153L7.85935 54.3795L12.1059 55.4925L9.64226 65.313L15.5745 66.7861L18.0057 56.9655L22.8033 58.3404L20.3721 68.161L26.3367 69.6668L28.8004 59.6826C38.9468 61.6467 46.5646 60.861 49.7739 51.597C52.3672 44.1333 49.7739 39.8123 44.3279 37.0298C48.568 36.1769 51.7085 32.5487 51.9782 28.1912ZM38.3956 47.4396C36.5479 54.9032 24.0999 50.7131 20.0803 49.862L23.3219 36.7679C27.2443 37.6517 40.1785 39.6158 38.2659 47.4396H38.3956ZM40.2114 28.093C38.5582 34.8692 28.1849 31.3665 24.846 30.5809L27.6662 18.5998C31.0375 19.4509 41.8322 21.0222 40.0817 28.093H40.2114Z" fill="white"/>
</svg>
