<svg width="34" height="34" viewBox="0 0 34 34" fill="none" xmlns="http://www.w3.org/2000/svg">
<path fill-rule="evenodd" clip-rule="evenodd" d="M15.7595 0.24471L15.7653 0.244456C16.1845 0.22601 16.7333 0.201867 17.1489 0.200195C18.6206 0.206075 19.3892 0.782244 19.0885 1.91191C18.7181 3.29858 16.8255 5.18079 14.2836 6.8673C13.8031 7.09575 13.3074 6.44735 13.4099 6.17187C13.4305 6.13174 13.4591 6.09629 13.4939 6.06772C15.7141 4.59538 17.3665 2.95254 17.6941 1.74141C17.9808 0.644047 17.1182 0.149186 15.543 0.262903L15.7595 0.24471ZM15.3798 0.276626L15.543 0.262903C15.4894 0.266773 15.435 0.271347 15.3798 0.276626ZM25.256 4.07129C25.5408 3.00882 25.1855 2.27643 24.332 1.88C24.0578 1.74882 23.7185 1.60586 23.3978 1.47072L23.3977 1.47069L23.3977 1.47067L23.3976 1.47062C23.3077 1.43274 23.2192 1.39548 23.1341 1.35926C23.0686 1.3307 23.0006 1.30215 22.9283 1.27527L23.1341 1.35926C23.9405 1.73217 24.2766 2.42173 24.0094 3.42373C23.2122 6.42048 17.3245 11.0685 10.8639 13.8065C9.73989 14.2898 8.58813 14.7057 7.41471 15.0521C7.31317 15.0884 7.2252 15.1549 7.1627 15.2428C6.90397 15.6123 7.00477 16.5077 7.62387 16.4186C8.87068 16.052 10.0945 15.6114 11.2889 15.0991C18.1561 12.1914 24.4076 7.25534 25.256 4.07129ZM31.7636 8.96032L31.9703 9.35507C32.0966 9.70092 32.1428 9.82734 32.1607 9.95764C32.1711 10.0327 32.172 10.1091 32.1736 10.2294C32.1712 10.2513 32.1614 10.2718 32.1458 10.2874C31.9585 10.2244 31.5049 9.36347 31.4621 8.98635C31.4649 8.67017 31.3893 8.35822 31.242 8.07843L31.7636 8.96032ZM31.1756 7.96672L31.242 8.07843C31.221 8.03979 31.1991 8.00284 31.1756 7.96672ZM33.2715 12.7592C33.369 13.1329 33.3555 13.5688 33.2237 14.0669C32.3836 17.2039 27.0444 21.804 20.5779 25.1981C19.8555 25.4996 19.4128 24.9545 19.5858 24.4892C19.6563 24.314 19.7871 24.1698 19.9546 24.0827C26.5295 20.6324 31.9603 15.9558 32.807 12.7667C32.9485 12.2362 32.9562 11.7753 32.8418 11.3841L32.9006 11.563C33.0295 11.9542 33.1764 12.4002 33.2715 12.7592ZM32.807 11.2776L32.8418 11.3841C32.8312 11.348 32.8196 11.3125 32.807 11.2776ZM4.19404 6.59938C4.17804 6.65956 4.16598 6.72073 4.15792 6.78248C4.12326 6.98358 4.16912 7.19024 4.2856 7.35781C4.80474 8.06416 6.75276 7.90206 9.2804 6.83539C10.0757 6.49522 10.8479 6.10356 11.5922 5.66289C11.7526 5.52431 11.6384 5.31014 11.5846 5.23035C11.5308 5.15056 11.2654 4.84819 11.0369 4.93218C10.4453 5.28086 9.83165 5.5906 9.19976 5.85943C7.1921 6.71193 5.64225 6.84127 5.22895 6.27938C5.11807 6.1282 5.08951 5.9283 5.15671 5.67633C5.25881 5.35865 5.42331 5.06454 5.64057 4.81124C6.01795 4.35928 6.44483 3.95106 6.91321 3.59423C8.09798 2.7398 9.3743 2.02005 10.7185 1.44829C10.8874 1.37622 11.0507 1.3152 11.2135 1.25435L11.2135 1.25434C11.2613 1.23648 11.3091 1.21863 11.3569 1.20052C13.352 0.547918 14.6583 0.748654 14.3869 1.76577C14.3038 2.08073 14.0795 2.43433 13.7435 2.83664C13.8863 2.98362 14.6633 3.16336 15.0035 2.99538C15.4176 2.52084 15.6974 2.07233 15.8024 1.68094C16.1132 0.512642 14.775 0.200201 12.6321 0.774691C12.4653 0.819584 12.3698 0.848288 12.2534 0.88328L12.2533 0.883282L12.2533 0.883296L12.2531 0.883362C12.2019 0.898755 12.1466 0.915367 12.0794 0.935111C11.8593 0.999783 11.7854 1.02414 11.5426 1.10897C11.2998 1.1938 11.1696 1.24167 11.0016 1.30635C10.8327 1.36929 10.7151 1.41788 10.4883 1.51162L10.4506 1.52724C10.2955 1.59348 10.2191 1.62779 10.0978 1.68226L10.0221 1.71622C9.85162 1.79265 9.78106 1.82708 9.61305 1.90939C9.49674 1.96638 9.43156 2.00001 9.35005 2.04207C9.31383 2.06077 9.27439 2.08112 9.2258 2.10593C9.06788 2.18656 9.00739 2.21931 8.84779 2.30834C8.74186 2.36743 8.6807 2.40321 8.60734 2.44614L8.6073 2.44616L8.60722 2.44621L8.60696 2.44636C8.56989 2.46804 8.52969 2.49156 8.47902 2.52084C8.32781 2.60819 8.27321 2.64094 8.11277 2.74173C8.00152 2.81161 7.94156 2.85081 7.86345 2.90187L7.86344 2.90187C7.8289 2.92445 7.7908 2.94936 7.74315 2.98026C7.5957 3.07589 7.53673 3.11708 7.39545 3.21576L7.37186 3.23223C7.23644 3.32714 7.16869 3.37695 7.06871 3.45045L6.98041 3.51528C6.8595 3.60385 6.79433 3.6546 6.69411 3.73264L6.69407 3.73267L6.69406 3.73268L6.69405 3.73269L6.59232 3.81176C6.44089 3.93288 6.36603 3.99524 6.25542 4.08738L6.16474 4.16284C5.9959 4.3031 5.9203 4.36693 5.73885 4.53491C5.40139 4.83449 5.08872 5.16088 4.8039 5.51087C4.60085 5.75708 4.42981 6.028 4.29485 6.31717C4.25389 6.40845 4.22019 6.50281 4.19404 6.59938ZM2.29305 9.27108C2.30415 9.18177 2.32155 9.09336 2.34513 9.00651C2.38311 8.86722 2.43169 8.73104 2.49046 8.59916C2.5795 8.41607 2.71306 8.17921 2.81555 8.00368C2.89286 7.87126 2.99359 7.7288 3.09683 7.5828L3.09684 7.58279L3.09684 7.58278C3.13046 7.53524 3.16434 7.48733 3.19776 7.43926L3.23628 7.38385C3.36052 7.20508 3.48833 7.02117 3.60097 6.86897L3.83198 6.56913L3.83618 6.56409C3.71116 6.72615 3.59936 6.89261 3.48715 7.05966L3.48715 7.05966L3.48715 7.05967L3.48714 7.05967L3.48714 7.05968L3.48714 7.05968L3.48714 7.05968L3.48713 7.05969L3.48713 7.05969L3.48713 7.0597L3.48712 7.0597L3.48712 7.05971L3.43465 7.13774C3.27595 7.38503 3.15267 7.65333 3.06839 7.9348C2.96255 8.33208 3.00791 8.6504 3.18432 8.88977C3.72698 9.62972 5.51455 9.61376 7.92795 8.81334C8.27824 8.76294 8.24464 9.40714 8.2438 9.41386C8.21356 9.76494 8.16736 10.2949 5.0979 10.6737C4.21755 10.7812 3.05075 10.7728 2.49382 10.1211L2.48038 10.1026C2.40448 9.9955 2.34974 9.87492 2.31909 9.7473C2.31909 9.7426 2.31725 9.73816 2.31533 9.73355C2.31382 9.72991 2.31227 9.72617 2.31153 9.72211C2.2885 9.57293 2.2823 9.42164 2.29305 9.27108ZM1.06995 11.7068C1.04058 11.8172 1.01841 11.9294 1.00359 12.0427C0.951511 12.4627 1.03467 12.8121 1.23796 13.0893C2.18551 14.3802 5.7447 14.0837 10.3648 12.1267C16.2156 9.64736 21.549 5.43527 22.2731 2.71988C22.5343 1.74056 22.1605 1.09216 21.2482 0.756203L21.22 0.748383C21.0614 0.704481 20.8924 0.657705 20.6014 0.597463C20.2086 0.514736 20.19 0.515978 20.0409 0.525918L20.0386 0.526071C20.824 0.814996 21.1651 1.40964 20.9265 2.30497C20.2646 4.78687 15.389 8.6378 10.0372 10.9055C5.81946 12.6928 2.56436 12.9666 1.69745 11.7841C1.46477 11.4666 1.40429 11.0441 1.54457 10.5175C1.5776 10.395 1.61828 10.2746 1.66637 10.1572C1.69577 10.0875 1.72602 10.0186 1.75458 9.95476C1.72181 10.0228 1.69325 10.0908 1.66637 10.1572C1.51678 10.5033 1.35934 10.9087 1.22426 11.2564L1.22424 11.2565L1.22421 11.2565L1.2242 11.2566L1.15396 11.4372C1.12148 11.5279 1.09348 11.6178 1.06995 11.7068ZM0.323906 14.9992L0.45915 14.0913L0.577594 13.4874C0.587674 13.4412 0.599435 13.3942 0.612035 13.3463C0.592 13.4387 0.577934 13.5324 0.563882 13.6261C0.554956 13.6855 0.546035 13.745 0.535593 13.804C0.499472 14.2298 0.586834 14.5893 0.796841 14.8749C0.958599 15.0892 1.16909 15.262 1.4109 15.3788C1.62259 15.5678 1.51086 16.2968 1.50918 16.3027C1.47138 16.5253 1.39578 16.7865 1.25046 16.7638C0.991477 16.6337 0.7687 16.4415 0.601955 16.2044V16.2322C0.582471 16.2056 0.566822 16.1767 0.55119 16.1478C0.54256 16.1318 0.533935 16.1158 0.524672 16.1003C0.520192 16.0927 0.51563 16.0852 0.511088 16.0777L0.511036 16.0777C0.501118 16.0614 0.491303 16.0453 0.482671 16.0281C0.476155 16.015 0.470088 16.0058 0.46447 15.9973C0.459225 15.9893 0.454372 15.982 0.44991 15.9726C0.399165 15.8561 0.363321 15.7336 0.343227 15.6081C0.339542 15.5897 0.337507 15.5706 0.335467 15.5515C0.334251 15.5401 0.333035 15.5287 0.331466 15.5174C0.32206 15.4643 0.315332 15.4108 0.311306 15.357C0.305303 15.2362 0.309518 15.1151 0.323906 14.995V14.9992ZM0.368436 18.9924C0.374274 19.0132 0.380082 19.0339 0.387764 19.0534V19.0492L0.394809 19.0673L0.394819 19.0674C0.398856 19.0779 0.4028 19.0883 0.407084 19.0979C0.454171 19.2116 0.514209 19.3196 0.58601 19.4196C0.585591 19.4126 0.585591 19.4056 0.58601 19.3986C1.80153 21.0952 6.43343 20.7206 12.4531 18.174C20.0687 14.9429 27.0057 9.46427 27.9448 5.93502C28.2027 4.96998 27.9851 4.25019 27.3795 3.77984L26.7075 3.2759L26.1329 2.88787C26.4311 3.10708 26.9838 3.51443 26.9351 4.4778C26.6613 9.99844 5.28008 23.1529 0.512928 18.0497C0.321748 17.7837 0.213736 17.4678 0.201185 17.142C0.200697 17.1064 0.200438 17.0716 0.200438 17.0376C0.199595 17.0725 0.199849 17.1073 0.201185 17.142C0.20552 17.4573 0.227953 17.829 0.248604 18.1713L0.248607 18.1713L0.248609 18.1713L0.24861 18.1714C0.254399 18.2673 0.260049 18.3609 0.26512 18.4503V18.4671C0.271 18.4999 0.271 18.536 0.271 18.5679C0.2752 18.5755 0.2752 18.5814 0.2752 18.5889C0.276859 18.6018 0.279952 18.615 0.283164 18.6288C0.286457 18.6429 0.289874 18.6576 0.292001 18.6729C0.305825 18.7678 0.327459 18.8613 0.356683 18.9526C0.360946 18.9657 0.364697 18.9791 0.368436 18.9924ZM1.25474 22.6028L1.2413 22.5851L1.23626 22.5784L1.23038 22.5709L1.2203 22.5566C1.10395 22.4183 1.02244 22.2541 0.982575 22.0778C0.950451 21.9601 0.91486 21.8326 0.877989 21.7006L0.877886 21.7003L0.877864 21.7002L0.877858 21.7002C0.779318 21.3474 0.671663 20.9619 0.596664 20.6409C0.649703 20.8537 0.743303 21.0544 0.872532 21.2321L0.891852 21.2581C2.20397 22.974 7.00473 22.565 13.2092 19.9378C21.1256 16.5782 28.3364 10.8845 29.3158 7.21334C29.5384 6.37345 29.4183 5.71833 29.0075 5.23874L29.1603 5.40309L29.1639 5.40687L29.1664 5.40956L29.1673 5.41055C29.4305 5.69326 29.7212 6.00548 29.9417 6.26762C30.3533 6.75644 30.4717 7.425 30.2457 8.27161C29.2469 12.0167 21.8917 17.8263 13.8165 21.2472C7.4785 23.9349 2.58367 24.3481 1.25222 22.591L1.25474 22.6028ZM28.9017 5.12536L29.0075 5.23874C28.9739 5.20011 28.9395 5.16147 28.9017 5.12536ZM0.582723 20.5803C0.587005 20.6006 0.591654 20.6208 0.596664 20.6409L0.582723 20.5803ZM2.29136 25.0922C2.50136 25.5458 2.57108 25.5962 2.57108 25.5962V25.592C2.66956 25.7052 2.77565 25.8115 2.88862 25.9103C4.56867 27.3289 9.31398 26.8065 15.3672 24.2523C20.2259 22.1938 24.8284 19.2844 27.9861 16.4631L27.9862 16.4629C28.1139 16.284 28.3069 16.0136 28.1432 15.5695C28.0676 15.3646 27.8315 14.9186 27.2821 15.2083C24.1262 18.0245 19.5321 20.9289 14.6817 22.9841C8.22278 25.7188 3.23975 26.1337 1.91334 24.3279C2.02423 24.5687 2.14211 24.8081 2.267 25.046L2.29136 25.0922ZM4.1301 27.7975C3.95453 27.5909 3.78149 27.3818 3.63952 27.1979C3.63028 27.1869 3.62188 27.1752 3.61348 27.1634C3.6202 27.1722 3.62734 27.1804 3.63448 27.1886C3.64162 27.1968 3.64876 27.205 3.65548 27.2138C4.44343 28.2074 6.39313 28.4913 9.11565 28.0428C9.66503 28.0134 10.0262 28.472 10.0926 28.5963C10.169 28.7407 10.2489 28.9969 9.91536 29.0943C7.34572 29.5143 5.47162 29.2783 4.64167 28.3922C4.48459 28.2141 4.30398 28.0008 4.1301 27.7933V27.7975ZM6.21479 29.8911C6.17796 29.8641 6.14245 29.8362 6.10828 29.8074V29.8032C6.14252 29.8319 6.17811 29.8613 6.21479 29.8911ZM6.21479 29.8911C7.79154 31.0491 11.7929 30.6412 16.9051 28.6173C17.6757 28.3806 17.9329 28.8953 17.9359 28.9012L17.9359 28.9012C17.9787 29.0045 18.0333 29.2682 17.5999 29.4832C12.6949 31.4251 8.84845 31.8232 7.30532 30.7338C7.2011 30.6533 7.08649 30.5662 6.96783 30.476L6.96763 30.4758L6.96758 30.4758L6.9674 30.4756C6.71457 30.2834 6.44336 30.0772 6.21479 29.8911ZM28.8513 28.5543C28.7436 28.7282 28.6102 28.8848 28.4557 29.0188C26.8537 30.3072 24.7411 31.5821 22.5276 32.5203C20.6619 33.3106 19.0306 33.7323 17.8235 33.7936C17.3908 33.802 16.8406 33.8028 16.3677 33.7936C17.7596 33.7936 19.7421 33.3157 22.0387 32.3431C24.547 31.2798 26.9411 29.8351 28.7589 28.3754C28.8026 28.3459 28.8494 28.3211 28.8984 28.3015L28.9345 28.3678C28.9116 28.4307 28.8838 28.4916 28.8513 28.5501V28.5543ZM16.077 33.7869C16.1703 33.7936 16.2677 33.7936 16.3677 33.7936L16.077 33.7869ZM13.9474 33.5265C18.528 34.2622 30.0339 28.5291 32.5413 23.4057C32.6918 23.0657 32.8378 22.6249 32.968 22.2315L32.9683 22.2306L32.971 22.2227C32.9911 22.1618 33.0109 22.1021 33.0303 22.0441C33.0494 21.9913 33.0671 21.939 33.0832 21.8872C33.0659 21.9377 33.0483 21.9901 33.0303 22.0441C32.0079 24.8601 26.6453 29.025 20.7776 31.5116C17.1537 33.0468 14.1572 33.5952 12.491 33.1879C12.4487 33.177 12.4074 33.1661 12.3673 33.1553C12.4077 33.1668 12.4489 33.1777 12.491 33.1879C12.9319 33.3023 13.4805 33.4234 13.9103 33.5183L13.9105 33.5183L13.9474 33.5265ZM33.6904 18.9464L33.6904 18.9465C33.6525 19.2577 33.6118 19.5921 33.5655 19.8605C33.5513 19.9445 33.5328 20.0235 33.5101 20.1083C32.6877 23.1907 26.6337 27.9723 19.9857 30.7884C15.6637 32.6202 12.1541 33.1695 10.4564 32.48C10.3879 32.4482 10.3157 32.4149 10.2411 32.3804L10.2403 32.3801L10.2402 32.38C9.85746 32.2034 9.41093 31.9972 9.06954 31.8181C14.9018 34.2471 32.9011 24.4119 33.7604 18.326L33.7403 18.5469C33.7241 18.6698 33.7075 18.8057 33.6904 18.9464ZM27.6197 23.9349C30.8613 21.542 33.184 19.0332 33.6964 17.1115H33.6973C33.772 16.8452 33.8063 16.5691 33.7989 16.2926L33.7678 15.7517L33.6689 14.7952C33.7024 15.1353 33.6707 15.4788 33.5755 15.8072C33.0454 17.796 30.6429 20.3947 27.2828 22.8724C27.1111 23.0111 26.9912 23.2038 26.9426 23.4192C26.8636 23.7929 27.0946 24.2565 27.6197 23.9349Z" fill="white"/>
</svg>
