<svg width="66" height="72" viewBox="0 0 66 72" fill="none" xmlns="http://www.w3.org/2000/svg">
<path d="M7.86182 16L39.3087 8.5V56.5L7.86182 64V16Z" fill="#DE9902"/>
<path d="M7.86182 16L39.3087 8.5V56.5L7.86182 64V16Z" fill="#DE9902"/>
<path d="M7.86182 16H55.0322V64H7.86182V16Z" fill="#FBAC00"/>
<path d="M7.86182 16H55.0322V64H7.86182V16Z" fill="#FBAC00"/>
<path fill-rule="evenodd" clip-rule="evenodd" d="M32.3017 32.6001C30.0306 32.6001 28.097 34.0811 27.3874 36.1488L27.034 37.1783L26.0567 36.7311C25.4379 36.4481 24.7511 36.2901 24.0253 36.2901C21.2858 36.2901 19.065 38.5499 19.065 41.3376V41.9526C19.065 44.7403 21.2858 47.0001 24.0253 47.0001H39.7389C41.9221 47.0001 43.6919 45.1992 43.6919 42.9776C43.6919 40.756 41.9221 38.9551 39.7389 38.9551H37.5054V37.8954C37.5054 34.9709 35.1756 32.6001 32.3017 32.6001ZM25.9249 34.5588C27.1147 32.2087 29.5226 30.6001 32.3017 30.6001C35.948 30.6001 38.9585 33.3702 39.4119 36.9551H39.7389C43.0076 36.9551 45.6573 39.6515 45.6573 42.9776C45.6573 46.3037 43.0076 49.0001 39.7389 49.0001H24.0253C20.2003 49.0001 17.0996 45.8448 17.0996 41.9526V41.3376C17.0996 37.4454 20.2003 34.2901 24.0253 34.2901C24.6831 34.2901 25.3206 34.3837 25.9249 34.5588Z" fill="white"/>
</svg>
